<?xml version="1.0" encoding="UTF-8"?>
<svg width="250px" height="129px" viewBox="0 0 250 129" version="1.1" xmlns="http://www.w3.org/2000/svg" xmlns:xlink="http://www.w3.org/1999/xlink">
    <!-- Generator: Sketch 63.1 (92452) - https://sketch.com -->
    <title>暂无相关内容</title>
    <desc>Created with Sketch.</desc>
    <defs>
        <linearGradient x1="50%" y1="0%" x2="50%" y2="100%" id="linearGradient-1">
            <stop stop-color="#C1DBFE" offset="0%"></stop>
            <stop stop-color="#FFFFFF" offset="100%"></stop>
        </linearGradient>
        <linearGradient x1="50%" y1="0%" x2="84.3229316%" y2="40.0234628%" id="linearGradient-2">
            <stop stop-color="#AFC0EF" offset="0%"></stop>
            <stop stop-color="#6E94E7" offset="100%"></stop>
        </linearGradient>
        <linearGradient x1="50%" y1="0%" x2="98.1223959%" y2="40.0234628%" id="linearGradient-3">
            <stop stop-color="#AFC0EF" offset="0%"></stop>
            <stop stop-color="#6E94E7" offset="100%"></stop>
        </linearGradient>
        <linearGradient x1="23.1257341%" y1="13.3311767%" x2="72.0828806%" y2="86.8787371%" id="linearGradient-4">
            <stop stop-color="#B9D1F5" offset="0%"></stop>
            <stop stop-color="#89AFF1" offset="100%"></stop>
        </linearGradient>
        <linearGradient x1="50%" y1="0%" x2="37.9345292%" y2="100%" id="linearGradient-5">
            <stop stop-color="#4B75CC" offset="0%"></stop>
            <stop stop-color="#8DB1F9" offset="100%"></stop>
        </linearGradient>
        <linearGradient x1="95.8914194%" y1="50%" x2="-18.698097%" y2="29.1709077%" id="linearGradient-6">
            <stop stop-color="#BBCCF8" offset="0%"></stop>
            <stop stop-color="#7C9BDC" offset="100%"></stop>
            <stop stop-color="#7C9BDC" offset="100%"></stop>
        </linearGradient>
        <linearGradient x1="50%" y1="0%" x2="50%" y2="100%" id="linearGradient-7">
            <stop stop-color="#AACEFF" offset="0%"></stop>
            <stop stop-color="#97B4F6" offset="100%"></stop>
        </linearGradient>
    </defs>
    <g id="2.0" stroke="none" stroke-width="1" fill="none" fill-rule="evenodd">
        <g id="空页面" transform="translate(-427.000000, -496.000000)">
            <g id="暂无相关内容" transform="translate(423.000000, 475.000000)">
                <rect id="矩形" x="0" y="0" width="253" height="150"></rect>
                <path d="M253.283495,150 C223.862798,113.493778 176.799938,92 126.264363,92 C77.2903413,92 33.4394504,113.93473 4,148.515879 C4,148.515879 253.283495,150 253.283495,150 Z" id="椭圆形" fill="url(#linearGradient-1)"></path>
                <g id="编组-2" transform="translate(64.000000, 21.000000)">
                    <polygon id="路径-34" fill="url(#linearGradient-2)" points="13.3406151 33.5236607 57.5965998 23.321311 57.5965998 88.3945272 13.3406151 88.3945272"></polygon>
                    <polygon id="路径-34备份" fill="url(#linearGradient-3)" points="57.5965998 23.321311 109.53353 36.2573349 109.53353 88.3945272 57.1308572 88.3945272"></polygon>
                    <polygon id="路径-32" fill="url(#linearGradient-4)" points="13.3406151 33.5236607 13.3406151 88.3945272 64.7091371 110.819161 64.7091371 49.2156085"></polygon>
                    <polygon id="路径-32备份" fill="url(#linearGradient-5)" points="64.5965998 49.2156085 64.5965998 110.819161 109.53353 87.6210427 109.53353 36.2573349"></polygon>
                    <polygon id="路径-33" fill="url(#linearGradient-6)" points="64.5965998 49.2156085 80.7669655 79.4842097 124.34929 58.024025 109.53353 36.2573349"></polygon>
                    <polygon id="路径-35" fill="url(#linearGradient-7)" points="13.3406151 33.5236607 0 55.8579191 13.3406151 61.3526734"></polygon>
                    <line x1="21.5965998" y1="52" x2="56.2060318" y2="62.9065557" id="路径-36" stroke="#FFFFFF" stroke-width="2" stroke-linecap="round" stroke-linejoin="round"></line>
                    <line x1="21.9720746" y1="64.5901592" x2="40.6496132" y2="70.476058" id="路径-36备份" stroke="#FFFFFF" stroke-width="2" stroke-linecap="round" stroke-linejoin="round"></line>
                    <line x1="21.9720746" y1="76.5901592" x2="37.0452173" y2="81.3401958" id="路径-36备份-2" stroke="#FFFFFF" stroke-width="2" stroke-linecap="round" stroke-linejoin="round"></line>
                    <g id="编组" transform="translate(73.596600, 0.000000)">
                        <polygon id="路径-37" fill="#406AC6" points="7.74740151 11.4004434 7.74740151 23.210794 33.7683889 6.82121026e-13"></polygon>
                        <polygon id="路径-38" fill="#BCD0F1" points="33.7683889 6.74975286e-13 11.9187168 14.1069821 23.5552626 21.9344804"></polygon>
                        <polygon id="路径-39" fill="#BCD0F1" points="1.8189894e-12 4.41736428 7.74740151 11.605397 33.7683889 2.27373675e-13"></polygon>
                    </g>
                    <path d="M78.6097841,15 C68.1172454,23.1217098 62.8709761,28.7781523 62.8709761,31.9693274 C62.8709761,36.7560901 66.23947,38.3172852 69.3195742,38.3172852 C72.3996784,38.3172852 74.7248385,32.8289239 68.7979073,31.9693274 C64.8466198,31.3962631 61.1128507,36.5307589 57.5965998,47.3728146" id="路径-40" stroke="#B7DCFC" stroke-linecap="round" stroke-linejoin="round" stroke-dasharray="2"></path>
                </g>
                <g id="3.通用组件/彩色版/盆栽03" transform="translate(48.000000, 93.000000)">
                    <g id="分组" transform="translate(0.968750, 0.179688)">
                        <g transform="translate(5.875000, 0.000000)" fill="#BAE637" id="Fill-1">
                            <path d="M4.6757776,18.3494157 L0.00187743506,18.3494157 L0.00187743506,2.3360632 C0.00187743506,1.06147112 1.04268506,0.0281925221 2.32660958,0.0281925221 L2.35100893,0.0281925221 C3.63493344,0.0281925221 4.6757776,1.06147112 4.6757776,2.3360632 L4.6757776,18.3494157 Z"></path>
                        </g>
                        <path d="M12.875,22.2690616 L8.1875,22.2690616 L8.1875,13.9072249 C8.1875,12.6662922 9.20534668,11.6603281 10.4609375,11.6603281 L10.6015991,11.6603281 C11.8571533,11.6603281 12.875,12.6662922 12.875,13.9072249 L12.875,22.2690616 Z" id="Fill-3" fill="#389E0D"></path>
                        <path d="M6.5625,18.3410466 L1.84375,18.3410466 L1.84375,9.2496614 C1.84375,8.00170765 2.86426439,6.990011 4.12309505,6.990011 L4.28315495,6.990011 C5.54198561,6.990011 6.5625,8.00170765 6.5625,9.2496614 L6.5625,18.3410466 Z" id="Fill-5" fill="#7CB305"></path>
                        <g transform="translate(0.000000, 17.784320)" fill="#3B68B8" id="Fill-7">
                            <path d="M13.1538246,13.8381958 L0.878524946,13.8381958 C0.393322939,13.8381958 0,13.4489514 0,12.9687806 L0,0.893400207 C0,0.413229429 0.393322939,0.0239849922 0.878524946,0.0239849922 L13.1538246,0.0239849922 C13.6390266,0.0239849922 14.0323495,0.413229429 14.0323495,0.893400207 L14.0323495,12.9687806 C14.0323495,13.4489514 13.6390266,13.8381958 13.1538246,13.8381958"></path>
                        </g>
                    </g>
                </g>
                <g id="3.通用组件/彩色版/盆栽03备份" transform="translate(184.000000, 82.000000)">
                    <g id="分组" transform="translate(0.968750, 0.179688)">
                        <g transform="translate(5.875000, 0.000000)" fill="#BAE637" id="Fill-1">
                            <path d="M4.6757776,18.3494157 L0.00187743506,18.3494157 L0.00187743506,2.3360632 C0.00187743506,1.06147112 1.04268506,0.0281925221 2.32660958,0.0281925221 L2.35100893,0.0281925221 C3.63493344,0.0281925221 4.6757776,1.06147112 4.6757776,2.3360632 L4.6757776,18.3494157 Z"></path>
                        </g>
                        <path d="M12.875,22.2690616 L8.1875,22.2690616 L8.1875,13.9072249 C8.1875,12.6662922 9.20534668,11.6603281 10.4609375,11.6603281 L10.6015991,11.6603281 C11.8571533,11.6603281 12.875,12.6662922 12.875,13.9072249 L12.875,22.2690616 Z" id="Fill-3" fill="#389E0D"></path>
                        <path d="M6.5625,18.3410466 L1.84375,18.3410466 L1.84375,9.2496614 C1.84375,8.00170765 2.86426439,6.990011 4.12309505,6.990011 L4.28315495,6.990011 C5.54198561,6.990011 6.5625,8.00170765 6.5625,9.2496614 L6.5625,18.3410466 Z" id="Fill-5" fill="#7CB305"></path>
                        <g transform="translate(0.000000, 17.784320)" fill="#3B68B8" id="Fill-7">
                            <path d="M13.1538246,13.8381958 L0.878524946,13.8381958 C0.393322939,13.8381958 0,13.4489514 0,12.9687806 L0,0.893400207 C0,0.413229429 0.393322939,0.0239849922 0.878524946,0.0239849922 L13.1538246,0.0239849922 C13.6390266,0.0239849922 14.0323495,0.413229429 14.0323495,0.893400207 L14.0323495,12.9687806 C14.0323495,13.4489514 13.6390266,13.8381958 13.1538246,13.8381958"></path>
                        </g>
                    </g>
                </g>
            </g>
        </g>
    </g>
</svg>