<?xml version="1.0" encoding="UTF-8"?>
<svg width="220px" height="220px" viewBox="0 0 220 220" version="1.1" xmlns="http://www.w3.org/2000/svg" xmlns:xlink="http://www.w3.org/1999/xlink">
    <!-- Generator: Sketch 61 (89581) - https://sketch.com -->
    <title>暂无订单、退货申请@2x</title>
    <desc>Created with Sketch.</desc>
    <defs>
        <radialGradient cx="50%" cy="53.1376138%" fx="50%" fy="53.1376138%" r="79.4302246%" gradientTransform="translate(0.500000,0.531376),scale(1.000000,0.989529),scale(1.000000,1.009335),translate(-0.500000,-0.531376)" id="radialGradient-1">
            <stop stop-color="#FFDFAE" offset="0%"></stop>
            <stop stop-color="#FFE389" offset="100%"></stop>
        </radialGradient>
        <filter x="-50.3%" y="-49.7%" width="200.5%" height="199.5%" filterUnits="objectBoundingBox" id="filter-2">
            <feGaussianBlur stdDeviation="24" in="SourceGraphic"></feGaussianBlur>
        </filter>
        <linearGradient x1="50%" y1="113.24824%" x2="50%" y2="-34.9879449%" id="linearGradient-3">
            <stop stop-color="#FFEDD9" stop-opacity="0" offset="0%"></stop>
            <stop stop-color="#FCDF97" stop-opacity="0.682036713" offset="34.6856228%"></stop>
            <stop stop-color="#FFC489" offset="100%"></stop>
        </linearGradient>
        <path d="M15.0031743,39.4105263 C12.5064412,39.4105263 10.6105263,37.6400345 10.6105263,35.2793788 C10.6105263,33.2846247 12.7574497,32.1279034 14.7334737,31.7029853 C15.2408312,29.5665919 16.5519498,27.5718378 19.0486828,27.5718378 C19.7830161,27.5718378 20.5173493,27.7134771 21.184925,27.9731493 C22.4266158,26.1318378 24.6563185,25.0105263 27.112997,25.0105263 C30.9448814,25.0105263 33.2537663,29.0140738 33.2537663,31.1031851 C33.2537663,31.2802343 34.055784,31.5259362 34.0424325,31.7029853 C35.4710445,32.4347886 36.3789474,33.8039689 36.3789474,35.2793788 C36.3789474,37.5574116 34.2827597,39.4105263 31.7192692,39.4105263 L15.0031743,39.4105263 Z" id="path-4"></path>
        <filter x="-8.1%" y="-14.6%" width="116.3%" height="129.2%" filterUnits="objectBoundingBox" id="filter-5">
            <feGaussianBlur stdDeviation="0.7" in="SourceGraphic"></feGaussianBlur>
        </filter>
        <filter x="-17.9%" y="-31.9%" width="135.7%" height="163.9%" filterUnits="objectBoundingBox" id="filter-6">
            <feGaussianBlur stdDeviation="2" in="SourceAlpha" result="shadowBlurInner1"></feGaussianBlur>
            <feOffset dx="0" dy="-1" in="shadowBlurInner1" result="shadowOffsetInner1"></feOffset>
            <feComposite in="shadowOffsetInner1" in2="SourceAlpha" operator="arithmetic" k2="-1" k3="1" result="shadowInnerInner1"></feComposite>
            <feColorMatrix values="0 0 0 0 1   0 0 0 0 0.896903844   0 0 0 0 0.792751736  0 0 0 1 0" type="matrix" in="shadowInnerInner1"></feColorMatrix>
        </filter>
        <linearGradient x1="50%" y1="113.24824%" x2="50%" y2="-34.9879449%" id="linearGradient-7">
            <stop stop-color="#FFEDD9" stop-opacity="0" offset="0%"></stop>
            <stop stop-color="#FCDF97" stop-opacity="0.682036713" offset="34.6856228%"></stop>
            <stop stop-color="#FFC489" offset="100%"></stop>
        </linearGradient>
        <path d="M126.602431,73.5712552 C126.058275,71.1119641 124.726211,68.9684211 121.95596,68.9684211 C118.839176,68.9684211 118.344739,71.8543916 117.404832,73.5712552 C115.782607,72.8440195 112.926316,74.583029 112.926316,76.7639098 C112.926316,79.1303974 114.881924,80.3368421 117.404832,80.3368421 L127.249119,80.3368421 C129.326808,80.3368421 131.115789,78.7591837 131.115789,76.7639098 C131.115789,74.907841 128.728037,72.5237262 126.602431,73.5712552 Z" id="path-8"></path>
        <filter x="-11.5%" y="-18.5%" width="123.1%" height="136.9%" filterUnits="objectBoundingBox" id="filter-9">
            <feGaussianBlur stdDeviation="0.7" in="SourceGraphic"></feGaussianBlur>
        </filter>
        <filter x="-25.3%" y="-40.5%" width="150.6%" height="180.9%" filterUnits="objectBoundingBox" id="filter-10">
            <feGaussianBlur stdDeviation="2" in="SourceAlpha" result="shadowBlurInner1"></feGaussianBlur>
            <feOffset dx="0" dy="-1" in="shadowBlurInner1" result="shadowOffsetInner1"></feOffset>
            <feComposite in="shadowOffsetInner1" in2="SourceAlpha" operator="arithmetic" k2="-1" k3="1" result="shadowInnerInner1"></feComposite>
            <feColorMatrix values="0 0 0 0 1   0 0 0 0 0.896903844   0 0 0 0 0.792751736  0 0 0 1 0" type="matrix" in="shadowInnerInner1"></feColorMatrix>
        </filter>
        <linearGradient x1="50%" y1="-14.241728%" x2="50%" y2="126.883588%" id="linearGradient-11">
            <stop stop-color="#FFF4E7" stop-opacity="0" offset="0%"></stop>
            <stop stop-color="#E7A25D" offset="100%"></stop>
        </linearGradient>
        <linearGradient x1="-31.5219133%" y1="44.7044826%" x2="98.712135%" y2="44.7044826%" id="linearGradient-12">
            <stop stop-color="#E8DFDB" offset="0%"></stop>
            <stop stop-color="#CCB9B5" offset="100%"></stop>
        </linearGradient>
        <linearGradient x1="100%" y1="0%" x2="100%" y2="121.05008%" id="linearGradient-13">
            <stop stop-color="#E8E2DB" stop-opacity="0.457331731" offset="0%"></stop>
            <stop stop-color="#CCC3B5" offset="100%"></stop>
        </linearGradient>
        <filter x="-252.8%" y="-8.6%" width="605.6%" height="117.1%" filterUnits="objectBoundingBox" id="filter-14">
            <feGaussianBlur stdDeviation="1" in="SourceGraphic"></feGaussianBlur>
        </filter>
        <linearGradient x1="-31.5219133%" y1="44.7044826%" x2="98.712135%" y2="44.7044826%" id="linearGradient-15">
            <stop stop-color="#E8DFDB" offset="0%"></stop>
            <stop stop-color="#CCB9B5" offset="100%"></stop>
        </linearGradient>
        <linearGradient x1="100%" y1="0%" x2="100%" y2="121.05008%" id="linearGradient-16">
            <stop stop-color="#E8E2DB" stop-opacity="0.457331731" offset="0%"></stop>
            <stop stop-color="#CCC3B5" offset="100%"></stop>
        </linearGradient>
        <filter x="-292.0%" y="-12.2%" width="684.0%" height="124.4%" filterUnits="objectBoundingBox" id="filter-17">
            <feGaussianBlur stdDeviation="1" in="SourceGraphic"></feGaussianBlur>
        </filter>
        <linearGradient x1="67.1415399%" y1="44.6802359%" x2="52.7243737%" y2="56.6460503%" id="linearGradient-18">
            <stop stop-color="#FFB400" stop-opacity="0" offset="0%"></stop>
            <stop stop-color="#D04800" stop-opacity="0.423541302" offset="100%"></stop>
        </linearGradient>
        <linearGradient x1="-31.5219133%" y1="44.7044826%" x2="98.712135%" y2="44.7044826%" id="linearGradient-19">
            <stop stop-color="#E8DFDB" offset="0%"></stop>
            <stop stop-color="#CCB9B5" offset="100%"></stop>
        </linearGradient>
        <linearGradient x1="100%" y1="0%" x2="100%" y2="121.05008%" id="linearGradient-20">
            <stop stop-color="#E8E2DB" stop-opacity="0.457331731" offset="0%"></stop>
            <stop stop-color="#CCC3B5" offset="100%"></stop>
        </linearGradient>
        <filter x="-256.4%" y="-20.3%" width="612.8%" height="140.6%" filterUnits="objectBoundingBox" id="filter-21">
            <feGaussianBlur stdDeviation="1" in="SourceGraphic"></feGaussianBlur>
        </filter>
        <linearGradient x1="82.6203735%" y1="27.4892768%" x2="6.86383758%" y2="71.6051082%" id="linearGradient-22">
            <stop stop-color="#FFB400" offset="0%"></stop>
            <stop stop-color="#FD5902" offset="100%"></stop>
        </linearGradient>
        <linearGradient x1="82.9175964%" y1="27.4892768%" x2="6.47079941%" y2="71.6051082%" id="linearGradient-23">
            <stop stop-color="#FFFFFF" offset="0%"></stop>
            <stop stop-color="#FFEEE5" offset="100%"></stop>
        </linearGradient>
        <polygon id="path-24" points="49.1550143 44.1690987 49.2631579 81.2284974 10.6105263 62.9103744 11.1477191 31.2074448"></polygon>
        <filter x="-9.1%" y="-5.0%" width="118.1%" height="114.0%" filterUnits="objectBoundingBox" id="filter-25">
            <feOffset dx="0" dy="1" in="SourceAlpha" result="shadowOffsetOuter1"></feOffset>
            <feGaussianBlur stdDeviation="1" in="shadowOffsetOuter1" result="shadowBlurOuter1"></feGaussianBlur>
            <feColorMatrix values="0 0 0 0 0.755576313   0 0 0 0 0.495429676   0 0 0 0 0.0677686301  0 0 0 0.409227491 0" type="matrix" in="shadowBlurOuter1"></feColorMatrix>
        </filter>
        <linearGradient x1="57.0125695%" y1="57.7828578%" x2="71.3442407%" y2="39.048701%" id="linearGradient-26">
            <stop stop-color="#FFD682" offset="0%"></stop>
            <stop stop-color="#FFF9E3" offset="100%"></stop>
        </linearGradient>
        <linearGradient x1="74.8296587%" y1="36.6805411%" x2="45.3899135%" y2="89.0626307%" id="linearGradient-27">
            <stop stop-color="#E57000" offset="0%"></stop>
            <stop stop-color="#FFB892" stop-opacity="0.735494974" offset="100%"></stop>
        </linearGradient>
        <linearGradient x1="70.7661441%" y1="74.4578987%" x2="60.5404097%" y2="38.7757326%" id="linearGradient-28">
            <stop stop-color="#FF9F23" offset="0%"></stop>
            <stop stop-color="#D15919" offset="100%"></stop>
        </linearGradient>
        <radialGradient cx="50%" cy="50%" fx="50%" fy="50%" r="114.216255%" gradientTransform="translate(0.500000,0.500000),scale(0.814018,1.000000),rotate(-1.420050),scale(1.000000,0.801691),translate(-0.500000,-0.500000)" id="radialGradient-29">
            <stop stop-color="#FFFFFF" offset="0%"></stop>
            <stop stop-color="#D2D2D2" offset="100%"></stop>
        </radialGradient>
        <path d="M9.02100125,6.98557924 C8.198679,6.68011847 7.28773882,7.27393421 7.04273631,7.62765779 C6.3135932,8.67905378 4.80383039,11.3805489 0.348824643,10.9639004 C0.238217962,10.9537951 0.130009254,10.9985616 0.0634161708,11.0819755 C-0.00317691245,11.1653894 -0.0184912649,11.2753467 0.0230234333,11.371996 C0.464158272,12.3897913 1.90159321,14.720457 5.81055613,14.6636413 C5.9424816,14.6620736 6.05967041,14.5842878 6.10508042,14.4681464 C6.47323579,13.5224398 9.24645569,8.40352816 9.32660279,8.28012201 C9.82312383,7.51280454 9.32660279,7.00085228 9.02295606,6.98557924" id="path-30"></path>
        <filter x="-10.5%" y="-12.9%" width="121.0%" height="125.8%" filterUnits="objectBoundingBox" id="filter-31">
            <feGaussianBlur stdDeviation="0.5" in="SourceAlpha" result="shadowBlurInner1"></feGaussianBlur>
            <feOffset dx="0" dy="-1" in="shadowBlurInner1" result="shadowOffsetInner1"></feOffset>
            <feComposite in="shadowOffsetInner1" in2="SourceAlpha" operator="arithmetic" k2="-1" k3="1" result="shadowInnerInner1"></feComposite>
            <feColorMatrix values="0 0 0 0 0.789288949   0 0 0 0 0.789288949   0 0 0 0 0.789288949  0 0 0 0.5 0" type="matrix" in="shadowInnerInner1"></feColorMatrix>
        </filter>
        <path d="M39.3673862,6.98557924 C38.545064,6.68011847 37.6341238,7.27393421 37.3891213,7.62765779 C36.6599782,8.67905378 35.1502154,11.3805489 30.6952096,10.9639004 C30.584603,10.9537951 30.4763942,10.9985616 30.4098012,11.0819755 C30.3432081,11.1653894 30.3278937,11.2753467 30.3694084,11.371996 C30.8105433,12.3897913 32.2479782,14.720457 36.1569411,14.6636413 C36.2888666,14.6620736 36.4060554,14.5842878 36.4514654,14.4681464 C36.8196208,13.5224398 39.5928407,8.40352816 39.6729878,8.28012201 C40.1695088,7.51280454 39.6729878,7.00085228 39.3693411,6.98557924" id="path-32"></path>
        <filter x="-10.5%" y="-12.9%" width="121.0%" height="125.8%" filterUnits="objectBoundingBox" id="filter-33">
            <feGaussianBlur stdDeviation="0.5" in="SourceAlpha" result="shadowBlurInner1"></feGaussianBlur>
            <feOffset dx="0" dy="-1" in="shadowBlurInner1" result="shadowOffsetInner1"></feOffset>
            <feComposite in="shadowOffsetInner1" in2="SourceAlpha" operator="arithmetic" k2="-1" k3="1" result="shadowInnerInner1"></feComposite>
            <feColorMatrix values="0 0 0 0 0.789288949   0 0 0 0 0.789288949   0 0 0 0 0.789288949  0 0 0 0.5 0" type="matrix" in="shadowInnerInner1"></feColorMatrix>
        </filter>
        <radialGradient cx="50%" cy="50%" fx="50%" fy="50%" r="113.184892%" gradientTransform="translate(0.500000,0.500000),scale(1.000000,0.822367),rotate(-1.311293),scale(1.000000,0.801691),translate(-0.500000,-0.500000)" id="radialGradient-34">
            <stop stop-color="#FFFFFF" offset="0%"></stop>
            <stop stop-color="#D2D2D2" offset="100%"></stop>
        </radialGradient>
        <path d="M12.6290126,35.1641486 C10.9940866,36.9053921 9.40967642,40.7443981 11.1866406,42.0782711 C12.6070234,43.1450342 13.459253,39.4608178 15.094179,37.7195743 C16.7291049,35.9783308 18.8798853,33.7302491 18.0062608,33.0021232 C17.1326362,32.2739973 14.2645328,33.4229051 12.6290126,35.1641486 Z" id="path-35"></path>
        <filter x="-19.2%" y="-15.8%" width="138.4%" height="131.6%" filterUnits="objectBoundingBox" id="filter-36">
            <feGaussianBlur stdDeviation="1" in="SourceAlpha" result="shadowBlurInner1"></feGaussianBlur>
            <feOffset dx="0" dy="1" in="shadowBlurInner1" result="shadowOffsetInner1"></feOffset>
            <feComposite in="shadowOffsetInner1" in2="SourceAlpha" operator="arithmetic" k2="-1" k3="1" result="shadowInnerInner1"></feComposite>
            <feColorMatrix values="0 0 0 0 0.629698822   0 0 0 0 0.629698822   0 0 0 0 0.629698822  0 0 0 0.5 0" type="matrix" in="shadowInnerInner1"></feColorMatrix>
        </filter>
        <linearGradient x1="26.0416322%" y1="99.4923891%" x2="42.6220708%" y2="-24.9900192%" id="linearGradient-37">
            <stop stop-color="#301911" offset="0%"></stop>
            <stop stop-color="#AF6F27" offset="100%"></stop>
        </linearGradient>
        <radialGradient cx="50%" cy="50%" fx="50%" fy="50%" r="179.530086%" gradientTransform="translate(0.500000,0.500000),scale(0.630330,1.000000),rotate(-0.679812),scale(1.000000,0.801691),translate(-0.500000,-0.500000)" id="radialGradient-38">
            <stop stop-color="#FFFFFF" offset="0%"></stop>
            <stop stop-color="#D8D8D8" offset="100%"></stop>
        </radialGradient>
        <path d="M27.7452663,40.6295344 C27.7452663,36.7881891 23.6544246,31.0545776 20.0948388,31.0545776 C16.535253,31.0545776 12.138554,36.7881891 12.138554,40.6295344 C12.138554,41.608489 15.8308337,39.5344829 19.7952738,39.5177664 C23.6321018,39.5015879 27.7452663,41.5741617 27.7452663,40.6295344 Z" id="path-39"></path>
        <filter x="-12.8%" y="-20.3%" width="125.6%" height="140.7%" filterUnits="objectBoundingBox" id="filter-40">
            <feGaussianBlur stdDeviation="1.5" in="SourceAlpha" result="shadowBlurInner1"></feGaussianBlur>
            <feOffset dx="0" dy="1" in="shadowBlurInner1" result="shadowOffsetInner1"></feOffset>
            <feComposite in="shadowOffsetInner1" in2="SourceAlpha" operator="arithmetic" k2="-1" k3="1" result="shadowInnerInner1"></feComposite>
            <feColorMatrix values="0 0 0 0 0.629698822   0 0 0 0 0.629698822   0 0 0 0 0.629698822  0 0 0 0.5 0" type="matrix" in="shadowInnerInner1"></feColorMatrix>
        </filter>
        <linearGradient x1="107.934679%" y1="48.4167777%" x2="-13.6180123%" y2="48.4160337%" id="linearGradient-41">
            <stop stop-color="#E95100" offset="0%"></stop>
            <stop stop-color="#FD5E02" offset="27.4702006%"></stop>
            <stop stop-color="#FF8404" offset="50.2561642%"></stop>
            <stop stop-color="#FD6002" offset="75.7684291%"></stop>
            <stop stop-color="#E24E00" offset="100%"></stop>
        </linearGradient>
        <path d="M15.8217844,33.1330964 C15.2549161,33.5963059 14.971482,33.9098647 14.971482,34.0737727 C15.1793881,34.3283699 16.7951308,35.3677134 20.5116423,35.3677134 C23.4360346,35.3677134 24.7564145,34.6646917 25.2726962,34.0737727 C25.1760108,33.8771608 25.0880488,33.726051 25.0088103,33.6204433 C24.9360957,33.5235306 24.8177669,33.3610816 24.6538241,33.1330964 C22.9232443,33.4579944 21.445576,33.6204433 20.2208194,33.6204433 C18.9960628,33.6204433 17.5297178,33.4579944 15.8217844,33.1330964 Z" id="path-42"></path>
        <filter x="-24.3%" y="-111.9%" width="148.5%" height="323.8%" filterUnits="objectBoundingBox" id="filter-43">
            <feGaussianBlur stdDeviation="1.5" in="SourceAlpha" result="shadowBlurInner1"></feGaussianBlur>
            <feOffset dx="2" dy="0" in="shadowBlurInner1" result="shadowOffsetInner1"></feOffset>
            <feComposite in="shadowOffsetInner1" in2="SourceAlpha" operator="arithmetic" k2="-1" k3="1" result="shadowInnerInner1"></feComposite>
            <feColorMatrix values="0 0 0 0 0.817680027   0 0 0 0 0.283418974   0 0 0 0 0  0 0 0 0.625874126 0" type="matrix" in="shadowInnerInner1" result="shadowMatrixInner1"></feColorMatrix>
            <feGaussianBlur stdDeviation="1.5" in="SourceAlpha" result="shadowBlurInner2"></feGaussianBlur>
            <feOffset dx="-2" dy="0" in="shadowBlurInner2" result="shadowOffsetInner2"></feOffset>
            <feComposite in="shadowOffsetInner2" in2="SourceAlpha" operator="arithmetic" k2="-1" k3="1" result="shadowInnerInner2"></feComposite>
            <feColorMatrix values="0 0 0 0 0.883378623   0 0 0 0 0.306190997   0 0 0 0 0  0 0 0 0.733173077 0" type="matrix" in="shadowInnerInner2" result="shadowMatrixInner2"></feColorMatrix>
            <feMerge>
                <feMergeNode in="shadowMatrixInner1"></feMergeNode>
                <feMergeNode in="shadowMatrixInner2"></feMergeNode>
            </feMerge>
        </filter>
        <radialGradient cx="48.2126403%" cy="50%" fx="48.2126403%" fy="50%" r="79.1863551%" gradientTransform="translate(0.482126,0.500000),scale(0.890932,1.000000),rotate(-2.164426),scale(1.000000,0.801691),translate(-0.482126,-0.500000)" id="radialGradient-44">
            <stop stop-color="#FFFFFF" offset="0%"></stop>
            <stop stop-color="#FFFFFF" offset="41.3211031%"></stop>
            <stop stop-color="#FFFFFF" offset="70.6349285%"></stop>
            <stop stop-color="#D2D2D2" offset="100%"></stop>
        </radialGradient>
        <path d="M17.0702149,30.1699347 C23.0765839,30.1699347 31.195368,28.3178487 33.3408673,23.4083187 C34.7894577,20.09352 32.5094049,17.7756504 31.9063727,15.0402835 C30.963829,10.7648855 31.4531153,6.60203183 28.4573296,3.81524824 C25.6469895,1.20097266 23.2424427,0.0434765575 17.0702149,0.0434765575 C10.3841271,0.0434765575 7.362896,1.19279731 4.48954978,4.50815734 C2.17940216,7.17368056 1.73738248,11.2744762 1.73738248,15.0402835 C1.73738248,17.3768921 -0.896611343,20.2161087 0.321811137,23.4083187 C2.35673777,28.7397314 10.8114038,30.1699347 17.0702149,30.1699347 Z" id="path-45"></path>
        <filter x="-10.4%" y="-11.6%" width="120.7%" height="123.2%" filterUnits="objectBoundingBox" id="filter-47">
            <feGaussianBlur stdDeviation="3" in="SourceAlpha" result="shadowBlurInner1"></feGaussianBlur>
            <feOffset dx="0" dy="1" in="shadowBlurInner1" result="shadowOffsetInner1"></feOffset>
            <feComposite in="shadowOffsetInner1" in2="SourceAlpha" operator="arithmetic" k2="-1" k3="1" result="shadowInnerInner1"></feComposite>
            <feColorMatrix values="0 0 0 0 0.629698822   0 0 0 0 0.629698822   0 0 0 0 0.629698822  0 0 0 0.5 0" type="matrix" in="shadowInnerInner1" result="shadowMatrixInner1"></feColorMatrix>
            <feGaussianBlur stdDeviation="1.5" in="SourceAlpha" result="shadowBlurInner2"></feGaussianBlur>
            <feOffset dx="0" dy="1" in="shadowBlurInner2" result="shadowOffsetInner2"></feOffset>
            <feComposite in="shadowOffsetInner2" in2="SourceAlpha" operator="arithmetic" k2="-1" k3="1" result="shadowInnerInner2"></feComposite>
            <feColorMatrix values="0 0 0 0 1   0 0 0 0 1   0 0 0 0 1  0 0 0 0.5 0" type="matrix" in="shadowInnerInner2" result="shadowMatrixInner2"></feColorMatrix>
            <feMerge>
                <feMergeNode in="shadowMatrixInner1"></feMergeNode>
                <feMergeNode in="shadowMatrixInner2"></feMergeNode>
            </feMerge>
        </filter>
        <radialGradient cx="71.6876954%" cy="58.5051694%" fx="71.6876954%" fy="58.5051694%" r="55.4687148%" gradientTransform="translate(0.716877,0.585052),scale(1.000000,0.789646),rotate(180.000000),scale(1.000000,1.216249),translate(-0.716877,-0.585052)" id="radialGradient-48">
            <stop stop-color="#595959" offset="0%"></stop>
            <stop stop-color="#000000" offset="100%"></stop>
        </radialGradient>
        <path d="M27.4240697,-1.30984601 C33.4106224,4.4271855 35.5332961,9.69463068 33.7920906,14.4924895 C32.4783647,18.1124367 27.5906573,20.7773889 21.9055678,20.7773889 C19.9214557,20.7773889 18.2660918,20.5034976 16.939476,19.9557149 C17.1039665,18.9643335 17.2728869,18.2475978 17.4462371,17.8055077 C18.7736248,14.4203099 18.5180223,11.3406458 18.9293997,9.3821336 C19.2818226,7.70429591 19.5276494,6.60558315 20.2243173,4.81865618 C20.3781232,4.42414999 20.93854,3.5698942 21.9055678,2.25588881 C22.903442,0.990582049 23.8357142,0.178284748 24.7023844,-0.181003095 C25.5690545,-0.540290938 26.476283,-0.916571909 27.4240697,-1.30984601 Z" id="path-49"></path>
        <filter x="-14.3%" y="-11.3%" width="128.7%" height="122.6%" filterUnits="objectBoundingBox" id="filter-50">
            <feGaussianBlur stdDeviation="2" in="SourceAlpha" result="shadowBlurInner1"></feGaussianBlur>
            <feOffset dx="-1" dy="0" in="shadowBlurInner1" result="shadowOffsetInner1"></feOffset>
            <feComposite in="shadowOffsetInner1" in2="SourceAlpha" operator="arithmetic" k2="-1" k3="1" result="shadowInnerInner1"></feComposite>
            <feColorMatrix values="0 0 0 0 0.681357563   0 0 0 0 0.681357563   0 0 0 0 0.681357563  0 0 0 0.495465472 0" type="matrix" in="shadowInnerInner1"></feColorMatrix>
        </filter>
        <linearGradient x1="24.814821%" y1="39.4192142%" x2="78.9078461%" y2="62.0285647%" id="linearGradient-51">
            <stop stop-color="#AF6F27" offset="0%"></stop>
            <stop stop-color="#301911" offset="100%"></stop>
        </linearGradient>
        <linearGradient x1="78.9078461%" y1="62.0285647%" x2="24.814821%" y2="39.4192142%" id="linearGradient-52">
            <stop stop-color="#301911" offset="0%"></stop>
            <stop stop-color="#AF6F27" offset="100%"></stop>
        </linearGradient>
        <radialGradient cx="50%" cy="50%" fx="50%" fy="50%" r="113.185707%" gradientTransform="translate(0.500000,0.500000),scale(1.000000,0.811289),rotate(-1.329192),scale(1.000000,0.801691),translate(-0.500000,-0.500000)" id="radialGradient-53">
            <stop stop-color="#FFFFFF" offset="0%"></stop>
            <stop stop-color="#D2D2D2" offset="100%"></stop>
        </radialGradient>
        <path d="M2.57298116,2.34346956 C0.93805523,4.08471305 -0.646354991,7.92371909 1.13060921,9.25759207 C2.55099197,10.3243552 3.67941869,5.84088063 5.31434462,4.09963714 C6.52233941,2.81308768 7.61571636,2.70576141 7.66555983,2.28773306 C7.68317558,2.13999292 7.4485021,1.90430364 7.14276723,1.64887625 C6.83259701,1.38974332 6.61971397,1.2301254 6.26700607,0.848421999 C6.18944584,0.76448567 5.92605757,0.427886957 5.82872673,0.41442559 C4.79071353,0.270862913 3.67215369,1.17324434 2.57298116,2.34346956 Z" id="path-54"></path>
        <filter x="-20.5%" y="-16.6%" width="141.0%" height="133.3%" filterUnits="objectBoundingBox" id="filter-55">
            <feGaussianBlur stdDeviation="1" in="SourceAlpha" result="shadowBlurInner1"></feGaussianBlur>
            <feOffset dx="0" dy="1" in="shadowBlurInner1" result="shadowOffsetInner1"></feOffset>
            <feComposite in="shadowOffsetInner1" in2="SourceAlpha" operator="arithmetic" k2="-1" k3="1" result="shadowInnerInner1"></feComposite>
            <feColorMatrix values="0 0 0 0 0.629698822   0 0 0 0 0.629698822   0 0 0 0 0.629698822  0 0 0 0.5 0" type="matrix" in="shadowInnerInner1"></feColorMatrix>
        </filter>
        <linearGradient x1="26.0416322%" y1="92.6886093%" x2="42.6220708%" y2="-14.6810488%" id="linearGradient-56">
            <stop stop-color="#301911" offset="0%"></stop>
            <stop stop-color="#AF6F27" offset="100%"></stop>
        </linearGradient>
        <linearGradient x1="22.7128367%" y1="100%" x2="50%" y2="-12.5856868%" id="linearGradient-57">
            <stop stop-color="#FFCE5A" offset="0%"></stop>
            <stop stop-color="#FD5902" offset="100%"></stop>
        </linearGradient>
        <linearGradient x1="107.703792%" y1="45.473235%" x2="0%" y2="54.1062509%" id="linearGradient-58">
            <stop stop-color="#FFCE5A" offset="0%"></stop>
            <stop stop-color="#FD5902" offset="100%"></stop>
        </linearGradient>
        <polygon id="path-59" points="52.2947368 40.3833928 46.2862192 60.0074448 0 40.1824901 7.62209027 25.1442869"></polygon>
        <filter x="-13.4%" y="-14.3%" width="126.8%" height="140.2%" filterUnits="objectBoundingBox" id="filter-60">
            <feOffset dx="0" dy="2" in="SourceAlpha" result="shadowOffsetOuter1"></feOffset>
            <feGaussianBlur stdDeviation="2" in="shadowOffsetOuter1" result="shadowBlurOuter1"></feGaussianBlur>
            <feColorMatrix values="0 0 0 0 0.826737998   0 0 0 0 0.425584727   0 0 0 0 0  0 0 0 0.385134397 0" type="matrix" in="shadowBlurOuter1"></feColorMatrix>
        </filter>
        <linearGradient x1="-16.0264913%" y1="56.026969%" x2="100%" y2="37.2276679%" id="linearGradient-61">
            <stop stop-color="#FFFFFF" offset="0%"></stop>
            <stop stop-color="#FD5902" offset="100%"></stop>
        </linearGradient>
        <linearGradient x1="63.4405941%" y1="75.7199978%" x2="25.7097065%" y2="10.2687985%" id="linearGradient-62">
            <stop stop-color="#FFCE5A" offset="0%"></stop>
            <stop stop-color="#FD5902" offset="100%"></stop>
        </linearGradient>
        <polygon id="path-63" points="51.5368421 40.1210038 88.2631226 31.2074448 97.0105263 45.6074448 59.177208 60.0074448"></polygon>
        <filter x="-15.4%" y="-17.4%" width="130.8%" height="148.6%" filterUnits="objectBoundingBox" id="filter-64">
            <feOffset dx="0" dy="2" in="SourceAlpha" result="shadowOffsetOuter1"></feOffset>
            <feGaussianBlur stdDeviation="2" in="shadowOffsetOuter1" result="shadowBlurOuter1"></feGaussianBlur>
            <feColorMatrix values="0 0 0 0 0.930140399   0 0 0 0 0.539151197   0 0 0 0 0.124349562  0 0 0 0.572661713 0" type="matrix" in="shadowBlurOuter1"></feColorMatrix>
        </filter>
    </defs>
    <g id="吉祥物" stroke="none" stroke-width="1" fill="none" fill-rule="evenodd">
        <g id="暂无内容" transform="translate(38.000000, 38.000000)">
            <ellipse id="椭圆形" fill-opacity="0.6" fill="url(#radialGradient-1)" filter="url(#filter-2)" cx="72.3789474" cy="72.3789474" rx="71.6210526" ry="72.3789474"></ellipse>
            <path d="M46.5401227,106.742572 C67.2984039,106.742572 84.1263158,85.5620013 84.1263158,59.4344437 C84.1263158,33.3068861 67.2984039,12.1263158 46.5401227,12.1263158 C25.7818414,12.1263158 14.8071916,34.300564 8.95392957,59.4344437 C6.22315195,71.1603899 2.33032383,93.3615526 8.95392957,101.890456 C15.7782329,110.677788 36.006083,106.742572 46.5401227,106.742572 Z" id="椭圆形" fill="url(#linearGradient-3)"></path>
            <g id="云" fill-rule="nonzero" filter="url(#filter-5)">
                <use fill="#FFFFFF" xlink:href="#path-4"></use>
                <use fill="black" fill-opacity="1" filter="url(#filter-6)" xlink:href="#path-4"></use>
            </g>
            <path d="M97.4448114,115.957895 C118.194772,115.957895 140.363065,109.08425 135.82392,84.4199948 C131.284774,59.7557397 120.618716,24.2526316 99.8687551,24.2526316 C79.1187945,24.2526316 59.8736842,42.5241931 59.8736842,68.6510448 C59.8736842,94.7778966 76.6948508,115.957895 97.4448114,115.957895 Z" id="椭圆形-copy-3" fill="url(#linearGradient-7)"></path>
            <g id="云" fill-rule="nonzero" filter="url(#filter-9)">
                <use fill="#FFFFFF" xlink:href="#path-8"></use>
                <use fill="black" fill-opacity="1" filter="url(#filter-10)" xlink:href="#path-8"></use>
            </g>
            <ellipse id="椭圆形" fill="url(#linearGradient-11)" cx="71.2421053" cy="109.515789" rx="71.2421053" ry="19.3263158"></ellipse>
            <g id="树-copy-3" transform="translate(25.768421, 100.800000)">
                <rect id="矩形" fill="url(#linearGradient-12)" x="8.1509434" y="13.6894737" width="1.63018868" height="11.2736842"></rect>
                <polygon id="矩形-copy-5" fill="url(#linearGradient-13)" opacity="0.89811" filter="url(#filter-14)" transform="translate(25.120412, 24.484020) rotate(91.000000) translate(-25.120412, -24.484020) " points="24.5336293 6.97055857 25.7137888 6.97033878 25.707195 41.9974809 24.5270355 41.9977007"></polygon>
                <polygon id="路径-4" fill="#F3A96B" points="8.96603774 0 8.96603774 16.1052632 14.6716981 12.2797635"></polygon>
                <polygon id="路径-4-copy" fill="#FFCA4A" transform="translate(4.483019, 8.052632) scale(-1, 1) translate(-4.483019, -8.052632) " points="0 0 1.55399535e-13 16.1052632 8.96603774 12.3142676"></polygon>
            </g>
            <g id="树-copy-7" transform="translate(6.063158, 82.610526)">
                <rect id="矩形" fill="url(#linearGradient-15)" x="5.30526316" y="9.85263158" width="1.51578947" height="7.57894737"></rect>
                <polygon id="矩形-copy-5" fill="url(#linearGradient-16)" opacity="0.89811" filter="url(#filter-17)" transform="translate(17.628359, 17.282837) rotate(91.000000) translate(-17.628359, -17.282837) " points="17.215422 4.99270952 18.0484743 4.99247027 18.0412968 29.5729654 17.2082445 29.5732046"></polygon>
                <polygon id="路径-4" fill="#F3A96B" points="6.06315789 0 6.06315789 11.3684211 9.85263158 8.66806832"></polygon>
                <polygon id="路径-4-copy" fill="#FFCA4A" transform="translate(3.031579, 5.684211) scale(-1, 1) translate(-3.031579, -5.684211) " points="0 0 1.05086767e-13 11.3684211 6.06315789 8.69242416"></polygon>
            </g>
            <path d="M128.084211,108.378947 C126.172478,101.717366 66.3305288,90.2088417 71.9204233,94.2350085 C77.5103178,98.2611753 55.3263158,86.8989403 55.3263158,94.2350085 L75.7151703,118.231579 L128.084211,108.378947 Z" id="阴影" fill="url(#linearGradient-18)"></path>
            <g id="树-copy-5" transform="translate(117.473684, 93.221053)">
                <rect id="矩形" fill="url(#linearGradient-19)" x="6.06315789" y="10.6105263" width="1.51578947" height="9.09473684"></rect>
                <polygon id="矩形-copy-5" fill="url(#linearGradient-20)" opacity="0.840634301" filter="url(#filter-21)" transform="translate(13.387928, 19.443192) rotate(91.000000) translate(-13.387928, -19.443192) " points="13.0357653 12.0557541 13.972949 12.0554741 13.7400897 26.8306302 12.8029061 26.8309101"></polygon>
                <polygon id="路径-4" fill="#F3A96B" points="6.82105263 0 6.82105263 12.8842105 11.3684211 9.82381077"></polygon>
                <polygon id="路径-4-copy" fill="#FFCA4A" transform="translate(3.410526, 6.442105) scale(-1, 1) translate(-3.410526, -6.442105) " points="0 0 1.18222613e-13 12.8842105 6.82105263 9.85141404"></polygon>
            </g>
            <g id="纸箱" transform="translate(23.494737, 30.315789)">
                <polygon id="路径" fill="url(#linearGradient-22)" points="51.9922882 40.3053919 52.2947368 88.0495501 6.82105263 66.4008592 7.45304417 28.9337606"></polygon>
                <g id="路径">
                    <use fill="black" fill-opacity="1" filter="url(#filter-25)" xlink:href="#path-24"></use>
                    <use fill="url(#linearGradient-23)" fill-rule="evenodd" xlink:href="#path-24"></use>
                </g>
                <polygon id="路径" fill="url(#linearGradient-26)" opacity="0.629301525" points="46.8826428 71.2401156 46.9894737 77.4390238 12.1263158 60.9310522 12.6569881 56.2179711"></polygon>
                <polygon id="路径" fill="url(#linearGradient-26)" opacity="0.629301525" points="46.8826428 62.9032735 46.9894737 69.1021817 12.1263158 52.5942101 12.6569881 47.881129"></polygon>
                <polygon id="路径" fill="url(#linearGradient-27)" points="51.6268597 43.3337606 41.6842105 40.9742164 43.0943891 19.081129 88.6736842 31.2667815"></polygon>
                <polygon id="路径" fill="url(#linearGradient-28)" points="43.2 19.081129 43.2 38.0284974 7.57894737 25.3568481"></polygon>
                <g id="分组-8" transform="translate(52.283867, 21.612914) rotate(1.000000) translate(-52.283867, -21.612914) translate(32.199657, 0.347279)">
                    <g id="路径">
                        <use fill="url(#radialGradient-29)" fill-rule="evenodd" xlink:href="#path-30"></use>
                        <use fill="#FFFFFF" fill-rule="evenodd" xlink:href="#path-30"></use>
                        <use fill="black" fill-opacity="1" filter="url(#filter-31)" xlink:href="#path-30"></use>
                    </g>
                    <g id="路径" transform="translate(35.115103, 10.782839) scale(-1, 1) translate(-35.115103, -10.782839) ">
                        <use fill="url(#radialGradient-29)" fill-rule="evenodd" xlink:href="#path-32"></use>
                        <use fill="#FFFFFF" fill-rule="evenodd" xlink:href="#path-32"></use>
                        <use fill="black" fill-opacity="1" filter="url(#filter-33)" xlink:href="#path-32"></use>
                    </g>
                    <g id="路径">
                        <use fill="url(#radialGradient-34)" fill-rule="evenodd" xlink:href="#path-35"></use>
                        <use fill="#FFFFFF" fill-rule="evenodd" xlink:href="#path-35"></use>
                        <use fill="black" fill-opacity="1" filter="url(#filter-36)" xlink:href="#path-35"></use>
                    </g>
                    <path d="M10.437055,39.6808492 C10.3254938,40.6771077 10.4896782,41.5651499 11.09695,42.0794558 C11.8242027,42.6930529 12.3830611,41.725243 13.0055936,40.4617909" id="路径" fill="url(#linearGradient-37)" fill-rule="nonzero"></path>
                    <g id="路径">
                        <use fill="url(#radialGradient-38)" fill-rule="evenodd" xlink:href="#path-39"></use>
                        <use fill="#FFFFFF" fill-rule="evenodd" xlink:href="#path-39"></use>
                        <use fill="black" fill-opacity="1" filter="url(#filter-40)" xlink:href="#path-39"></use>
                    </g>
                    <g id="路径-6">
                        <use fill="url(#linearGradient-41)" fill-rule="evenodd" xlink:href="#path-42"></use>
                        <use fill="#FD5902" fill-rule="evenodd" xlink:href="#path-42"></use>
                        <use fill="black" fill-opacity="1" filter="url(#filter-43)" xlink:href="#path-42"></use>
                    </g>
                    <g id="face" transform="translate(3.468158, 3.450509)">
                        <mask id="mask-46" fill="white">
                            <use xlink:href="#path-45"></use>
                        </mask>
                        <g id="Mask">
                            <use fill="url(#radialGradient-44)" fill-rule="evenodd" xlink:href="#path-45"></use>
                            <use fill="#FFFFFF" fill-rule="evenodd" xlink:href="#path-45"></use>
                            <use fill="black" fill-opacity="1" filter="url(#filter-47)" xlink:href="#path-45"></use>
                        </g>
                        <g id="路径-2" mask="url(#mask-46)" transform="translate(25.660027, 9.733771) scale(-1, 1) translate(-25.660027, -9.733771) ">
                            <use fill="url(#radialGradient-48)" fill-rule="evenodd" xlink:href="#path-49"></use>
                            <use fill="#000000" fill-rule="evenodd" xlink:href="#path-49"></use>
                            <use fill="black" fill-opacity="1" filter="url(#filter-50)" xlink:href="#path-49"></use>
                        </g>
                    </g>
                    <path d="M32.0183572,6.70800871 C32.0062031,6.80328309 31.9192753,6.87774037 31.8107212,6.88585761 C31.0570025,6.94250127 28.2449192,6.97478206 27.747977,4.35760141 C27.7374797,4.29806516 27.7577906,4.23751765 27.8033466,4.19254301 C28.0317462,3.96657745 28.6892602,3.04992469 28.2975203,0.225659701 C28.2868791,0.149929788 28.3258863,0.0754282709 28.3982145,0.0333395839 C28.4705427,-0.00874910314 28.5637164,-0.0111652967 28.6387354,0.0271023601 C29.7080608,0.570394224 32.5332944,2.42684445 32.0183572,6.70800871 Z" id="路径" fill="url(#linearGradient-51)" fill-rule="nonzero"></path>
                    <path d="M8.73232716,6.70329735 C8.74395683,6.80131643 8.83327169,6.87813639 8.94487383,6.88610934 C9.70644171,6.94278106 12.5055499,6.96959349 13.002646,4.35964761 C13.0138031,4.29834121 12.9929448,4.2358761 12.9458746,4.18963245 C12.7160195,3.95989871 12.0652252,3.04157314 12.4522401,0.234190303 C12.4642327,0.155929815 12.4244854,0.0784989728 12.3498338,0.0346947792 C12.2751821,-0.00910941444 12.1786894,-0.0116216669 12.1012265,0.0282221242 C11.0232618,0.578486222 8.21999967,2.43768419 8.73232716,6.70329735 Z" id="路径" fill="url(#linearGradient-52)" fill-rule="nonzero"></path>
                    <g id="分组-9" transform="translate(29.180094, 31.990499) scale(-1, 1) rotate(-192.000000) translate(-29.180094, -31.990499) translate(25.242014, 26.870994)">
                        <g id="路径" transform="translate(4.007467, 4.909521) scale(-1, 1) translate(-4.007467, -4.909521) ">
                            <use fill="url(#radialGradient-53)" fill-rule="evenodd" xlink:href="#path-54"></use>
                            <use fill="#FFFFFF" fill-rule="evenodd" xlink:href="#path-54"></use>
                            <use fill="black" fill-opacity="1" filter="url(#filter-55)" xlink:href="#path-54"></use>
                        </g>
                        <path d="M4.9277509,6.97283654 C4.81618971,7.96909502 5.12417451,8.80154959 5.73144627,9.31585548 C6.45869894,9.92945253 7.0278829,8.99768362 7.6504154,7.73423152 L4.9277509,6.97283654 Z" id="路径" fill="url(#linearGradient-56)" fill-rule="nonzero" transform="translate(6.277813, 8.241118) scale(-1, 1) translate(-6.277813, -8.241118) "></path>
                    </g>
                </g>
                <polygon id="路径" fill="url(#linearGradient-57)" points="88.6736842 67.5838345 52.0482276 88.0495501 51.5368421 40.1210038 88.2731881 31.2074448"></polygon>
                <g id="路径">
                    <use fill="black" fill-opacity="1" filter="url(#filter-60)" xlink:href="#path-59"></use>
                    <use fill="url(#linearGradient-58)" fill-rule="evenodd" xlink:href="#path-59"></use>
                </g>
                <polygon id="路径" fill="url(#linearGradient-61)" opacity="0.098563058" points="52.194575 40.1824901 46.2862192 60.0074448 0 40.1824901 7.62209027 25.1442869"></polygon>
                <g id="路径">
                    <use fill="black" fill-opacity="1" filter="url(#filter-64)" xlink:href="#path-63"></use>
                    <use fill="url(#linearGradient-62)" fill-rule="evenodd" xlink:href="#path-63"></use>
                </g>
            </g>
            <path d="M91.8902289,34.949682 C104.232345,32.8949016 110.619932,28.8689834 111.052988,22.8719271 C111.702573,13.8763427 103.914518,18.6634464 105.880352,22.8719271 C107.846187,27.0804078 126.464609,28.6419894 138.121808,14.4865241" id="路径-8" stroke="#FF8300" stroke-dasharray="3" transform="translate(115.006018, 24.718103) rotate(-6.000000) translate(-115.006018, -24.718103) "></path>
        </g>
    </g>
</svg>